<mxfile host="app.diagrams.net" modified="2021-06-23T14:09:27.155Z" agent="5.0 (Windows NT 10.0; WOW64) AppleWebKit/537.36 (KHTML, like Gecko) Chrome/91.0.4472.114 Safari/537.36" etag="1OJ3wF3jlD2Rf3JlZ1eR" version="14.8.0" type="github">
  <diagram id="T38P18549kU4ImGicj8B" name="Page-1">
    <mxGraphModel dx="1108" dy="425" grid="1" gridSize="10" guides="1" tooltips="1" connect="1" arrows="1" fold="1" page="1" pageScale="1" pageWidth="850" pageHeight="1100" math="0" shadow="0">
      <root>
        <mxCell id="0" />
        <mxCell id="1" parent="0" />
        <mxCell id="3g70R6GkDLUcPMSrmJAs-1" value="S3 -SIMPLE STORAGE SERVICE" style="rounded=0;whiteSpace=wrap;html=1;shadow=1;fillColor=#33FF33;" vertex="1" parent="1">
          <mxGeometry x="40" y="20" width="220" height="60" as="geometry" />
        </mxCell>
        <mxCell id="3g70R6GkDLUcPMSrmJAs-2" value="it is like dropbox and google drive" style="rounded=1;whiteSpace=wrap;html=1;shadow=1;strokeColor=#FFFF33;" vertex="1" parent="1">
          <mxGeometry x="360" y="15" width="240" height="60" as="geometry" />
        </mxCell>
        <mxCell id="3g70R6GkDLUcPMSrmJAs-3" value="bucket" style="rounded=1;whiteSpace=wrap;html=1;shadow=1;strokeColor=#0000CC;" vertex="1" parent="1">
          <mxGeometry x="140" y="120" width="120" height="60" as="geometry" />
        </mxCell>
        <mxCell id="3g70R6GkDLUcPMSrmJAs-4" value="folder/files" style="rounded=1;whiteSpace=wrap;html=1;shadow=1;strokeColor=#0000CC;" vertex="1" parent="1">
          <mxGeometry x="140" y="200" width="120" height="60" as="geometry" />
        </mxCell>
        <mxCell id="3g70R6GkDLUcPMSrmJAs-5" value="" style="endArrow=classic;html=1;entryX=0.5;entryY=0;entryDx=0;entryDy=0;exitX=0.75;exitY=1;exitDx=0;exitDy=0;" edge="1" parent="1" source="3g70R6GkDLUcPMSrmJAs-1" target="3g70R6GkDLUcPMSrmJAs-3">
          <mxGeometry width="50" height="50" relative="1" as="geometry">
            <mxPoint x="210" y="90" as="sourcePoint" />
            <mxPoint x="260" y="40" as="targetPoint" />
          </mxGeometry>
        </mxCell>
        <mxCell id="3g70R6GkDLUcPMSrmJAs-6" value="" style="endArrow=classic;html=1;exitX=0.25;exitY=1;exitDx=0;exitDy=0;entryX=0.425;entryY=0;entryDx=0;entryDy=0;entryPerimeter=0;" edge="1" parent="1" source="3g70R6GkDLUcPMSrmJAs-3" target="3g70R6GkDLUcPMSrmJAs-4">
          <mxGeometry width="50" height="50" relative="1" as="geometry">
            <mxPoint x="170" y="220" as="sourcePoint" />
            <mxPoint x="200" y="180" as="targetPoint" />
          </mxGeometry>
        </mxCell>
        <mxCell id="3g70R6GkDLUcPMSrmJAs-9" value="" style="html=1;shadow=0;dashed=0;align=center;verticalAlign=middle;shape=mxgraph.arrows2.arrow;dy=0.6;dx=40;notch=0;fillColor=#FFFF99;" vertex="1" parent="1">
          <mxGeometry x="260" y="30" width="100" height="40" as="geometry" />
        </mxCell>
        <mxCell id="3g70R6GkDLUcPMSrmJAs-10" value="5GB FREE FOR ONE YEAR IN FREE TIRE AWS ACOUNT" style="rounded=1;whiteSpace=wrap;html=1;shadow=1;fillColor=#FFFF66;" vertex="1" parent="1">
          <mxGeometry x="480" y="100" width="340" height="60" as="geometry" />
        </mxCell>
      </root>
    </mxGraphModel>
  </diagram>
</mxfile>
